<?xml version="1.0" encoding="utf-8" standalone="no"?>
<!DOCTYPE svg PUBLIC "-//W3C//DTD SVG 1.1//EN"
  "http://www.w3.org/Graphics/SVG/1.1/DTD/svg11.dtd">
<!-- Created with matplotlib (http://matplotlib.org/) -->
<svg height="288pt" version="1.1" viewBox="0 0 432 288" width="432pt" xmlns="http://www.w3.org/2000/svg" xmlns:xlink="http://www.w3.org/1999/xlink">
 <defs>
  <style type="text/css">
*{stroke-linecap:butt;stroke-linejoin:round;}
  </style>
 </defs>
 <g id="figure_1">
  <g id="patch_1">
   <path d="M 0 288 
L 432 288 
L 432 0 
L 0 0 
z
" style="fill:#ffffff;"/>
  </g>
  <g id="axes_1">
   <g id="patch_2">
    <path d="M 37.504646 258.685354 
L 429.165354 258.685354 
L 429.165354 17.114646 
L 37.504646 17.114646 
z
" style="fill:#ffffff;"/>
   </g>
   <g id="matplotlib.axis_1">
    <g id="xtick_1">
     <g id="line2d_1">
      <path clip-path="url(#pec9e6c8f89)" d="M 41.93987 258.685354 
L 41.93987 17.114646 
" style="fill:none;stroke:#000000;stroke-dasharray:0.8,1.32;stroke-dashoffset:0;stroke-width:0.8;"/>
     </g>
     <g id="line2d_2">
      <defs>
       <path d="M 0 0 
L 0 3.5 
" id="mfcd5c46c00" style="stroke:#000000;stroke-width:0.8;"/>
      </defs>
      <g>
       <use style="stroke:#000000;stroke-width:0.8;" x="41.93987" xlink:href="#mfcd5c46c00" y="258.685354"/>
      </g>
     </g>
     <g id="text_1">
      <!-- 1930-01-01 -->
      <defs>
       <path d="M 12.40625 8.296875 
L 28.515625 8.296875 
L 28.515625 63.921875 
L 10.984375 60.40625 
L 10.984375 69.390625 
L 28.421875 72.90625 
L 38.28125 72.90625 
L 38.28125 8.296875 
L 54.390625 8.296875 
L 54.390625 0 
L 12.40625 0 
z
" id="DejaVuSans-31"/>
       <path d="M 10.984375 1.515625 
L 10.984375 10.5 
Q 14.703125 8.734375 18.5 7.8125 
Q 22.3125 6.890625 25.984375 6.890625 
Q 35.75 6.890625 40.890625 13.453125 
Q 46.046875 20.015625 46.78125 33.40625 
Q 43.953125 29.203125 39.59375 26.953125 
Q 35.25 24.703125 29.984375 24.703125 
Q 19.046875 24.703125 12.671875 31.3125 
Q 6.296875 37.9375 6.296875 49.421875 
Q 6.296875 60.640625 12.9375 67.421875 
Q 19.578125 74.21875 30.609375 74.21875 
Q 43.265625 74.21875 49.921875 64.515625 
Q 56.59375 54.828125 56.59375 36.375 
Q 56.59375 19.140625 48.40625 8.859375 
Q 40.234375 -1.421875 26.421875 -1.421875 
Q 22.703125 -1.421875 18.890625 -0.6875 
Q 15.09375 0.046875 10.984375 1.515625 
z
M 30.609375 32.421875 
Q 37.25 32.421875 41.125 36.953125 
Q 45.015625 41.5 45.015625 49.421875 
Q 45.015625 57.28125 41.125 61.84375 
Q 37.25 66.40625 30.609375 66.40625 
Q 23.96875 66.40625 20.09375 61.84375 
Q 16.21875 57.28125 16.21875 49.421875 
Q 16.21875 41.5 20.09375 36.953125 
Q 23.96875 32.421875 30.609375 32.421875 
z
" id="DejaVuSans-39"/>
       <path d="M 40.578125 39.3125 
Q 47.65625 37.796875 51.625 33 
Q 55.609375 28.21875 55.609375 21.1875 
Q 55.609375 10.40625 48.1875 4.484375 
Q 40.765625 -1.421875 27.09375 -1.421875 
Q 22.515625 -1.421875 17.65625 -0.515625 
Q 12.796875 0.390625 7.625 2.203125 
L 7.625 11.71875 
Q 11.71875 9.328125 16.59375 8.109375 
Q 21.484375 6.890625 26.8125 6.890625 
Q 36.078125 6.890625 40.9375 10.546875 
Q 45.796875 14.203125 45.796875 21.1875 
Q 45.796875 27.640625 41.28125 31.265625 
Q 36.765625 34.90625 28.71875 34.90625 
L 20.21875 34.90625 
L 20.21875 43.015625 
L 29.109375 43.015625 
Q 36.375 43.015625 40.234375 45.921875 
Q 44.09375 48.828125 44.09375 54.296875 
Q 44.09375 59.90625 40.109375 62.90625 
Q 36.140625 65.921875 28.71875 65.921875 
Q 24.65625 65.921875 20.015625 65.03125 
Q 15.375 64.15625 9.8125 62.3125 
L 9.8125 71.09375 
Q 15.4375 72.65625 20.34375 73.4375 
Q 25.25 74.21875 29.59375 74.21875 
Q 40.828125 74.21875 47.359375 69.109375 
Q 53.90625 64.015625 53.90625 55.328125 
Q 53.90625 49.265625 50.4375 45.09375 
Q 46.96875 40.921875 40.578125 39.3125 
z
" id="DejaVuSans-33"/>
       <path d="M 31.78125 66.40625 
Q 24.171875 66.40625 20.328125 58.90625 
Q 16.5 51.421875 16.5 36.375 
Q 16.5 21.390625 20.328125 13.890625 
Q 24.171875 6.390625 31.78125 6.390625 
Q 39.453125 6.390625 43.28125 13.890625 
Q 47.125 21.390625 47.125 36.375 
Q 47.125 51.421875 43.28125 58.90625 
Q 39.453125 66.40625 31.78125 66.40625 
z
M 31.78125 74.21875 
Q 44.046875 74.21875 50.515625 64.515625 
Q 56.984375 54.828125 56.984375 36.375 
Q 56.984375 17.96875 50.515625 8.265625 
Q 44.046875 -1.421875 31.78125 -1.421875 
Q 19.53125 -1.421875 13.0625 8.265625 
Q 6.59375 17.96875 6.59375 36.375 
Q 6.59375 54.828125 13.0625 64.515625 
Q 19.53125 74.21875 31.78125 74.21875 
z
" id="DejaVuSans-30"/>
       <path d="M 4.890625 31.390625 
L 31.203125 31.390625 
L 31.203125 23.390625 
L 4.890625 23.390625 
z
" id="DejaVuSans-2d"/>
      </defs>
      <g transform="translate(18.69362 271.764104)scale(0.08 -0.08)">
       <use xlink:href="#DejaVuSans-31"/>
       <use x="63.623047" xlink:href="#DejaVuSans-39"/>
       <use x="127.246094" xlink:href="#DejaVuSans-33"/>
       <use x="190.869141" xlink:href="#DejaVuSans-30"/>
       <use x="254.492188" xlink:href="#DejaVuSans-2d"/>
       <use x="290.576172" xlink:href="#DejaVuSans-30"/>
       <use x="354.199219" xlink:href="#DejaVuSans-31"/>
       <use x="417.822266" xlink:href="#DejaVuSans-2d"/>
       <use x="453.90625" xlink:href="#DejaVuSans-30"/>
       <use x="517.529297" xlink:href="#DejaVuSans-31"/>
      </g>
     </g>
    </g>
    <g id="xtick_2">
     <g id="line2d_3">
      <path clip-path="url(#pec9e6c8f89)" d="M 139.575568 258.685354 
L 139.575568 17.114646 
" style="fill:none;stroke:#000000;stroke-dasharray:0.8,1.32;stroke-dashoffset:0;stroke-width:0.8;"/>
     </g>
     <g id="line2d_4">
      <g>
       <use style="stroke:#000000;stroke-width:0.8;" x="139.575568" xlink:href="#mfcd5c46c00" y="258.685354"/>
      </g>
     </g>
     <g id="text_2">
      <!-- 1952-01-01 -->
      <defs>
       <path d="M 10.796875 72.90625 
L 49.515625 72.90625 
L 49.515625 64.59375 
L 19.828125 64.59375 
L 19.828125 46.734375 
Q 21.96875 47.46875 24.109375 47.828125 
Q 26.265625 48.1875 28.421875 48.1875 
Q 40.625 48.1875 47.75 41.5 
Q 54.890625 34.8125 54.890625 23.390625 
Q 54.890625 11.625 47.5625 5.09375 
Q 40.234375 -1.421875 26.90625 -1.421875 
Q 22.3125 -1.421875 17.546875 -0.640625 
Q 12.796875 0.140625 7.71875 1.703125 
L 7.71875 11.625 
Q 12.109375 9.234375 16.796875 8.0625 
Q 21.484375 6.890625 26.703125 6.890625 
Q 35.15625 6.890625 40.078125 11.328125 
Q 45.015625 15.765625 45.015625 23.390625 
Q 45.015625 31 40.078125 35.4375 
Q 35.15625 39.890625 26.703125 39.890625 
Q 22.75 39.890625 18.8125 39.015625 
Q 14.890625 38.140625 10.796875 36.28125 
z
" id="DejaVuSans-35"/>
       <path d="M 19.1875 8.296875 
L 53.609375 8.296875 
L 53.609375 0 
L 7.328125 0 
L 7.328125 8.296875 
Q 12.9375 14.109375 22.625 23.890625 
Q 32.328125 33.6875 34.8125 36.53125 
Q 39.546875 41.84375 41.421875 45.53125 
Q 43.3125 49.21875 43.3125 52.78125 
Q 43.3125 58.59375 39.234375 62.25 
Q 35.15625 65.921875 28.609375 65.921875 
Q 23.96875 65.921875 18.8125 64.3125 
Q 13.671875 62.703125 7.8125 59.421875 
L 7.8125 69.390625 
Q 13.765625 71.78125 18.9375 73 
Q 24.125 74.21875 28.421875 74.21875 
Q 39.75 74.21875 46.484375 68.546875 
Q 53.21875 62.890625 53.21875 53.421875 
Q 53.21875 48.921875 51.53125 44.890625 
Q 49.859375 40.875 45.40625 35.40625 
Q 44.1875 33.984375 37.640625 27.21875 
Q 31.109375 20.453125 19.1875 8.296875 
z
" id="DejaVuSans-32"/>
      </defs>
      <g transform="translate(116.329318 271.764104)scale(0.08 -0.08)">
       <use xlink:href="#DejaVuSans-31"/>
       <use x="63.623047" xlink:href="#DejaVuSans-39"/>
       <use x="127.246094" xlink:href="#DejaVuSans-35"/>
       <use x="190.869141" xlink:href="#DejaVuSans-32"/>
       <use x="254.492188" xlink:href="#DejaVuSans-2d"/>
       <use x="290.576172" xlink:href="#DejaVuSans-30"/>
       <use x="354.199219" xlink:href="#DejaVuSans-31"/>
       <use x="417.822266" xlink:href="#DejaVuSans-2d"/>
       <use x="453.90625" xlink:href="#DejaVuSans-30"/>
       <use x="517.529297" xlink:href="#DejaVuSans-31"/>
      </g>
     </g>
    </g>
    <g id="xtick_3">
     <g id="line2d_5">
      <path clip-path="url(#pec9e6c8f89)" d="M 237.223416 258.685354 
L 237.223416 17.114646 
" style="fill:none;stroke:#000000;stroke-dasharray:0.8,1.32;stroke-dashoffset:0;stroke-width:0.8;"/>
     </g>
     <g id="line2d_6">
      <g>
       <use style="stroke:#000000;stroke-width:0.8;" x="237.223416" xlink:href="#mfcd5c46c00" y="258.685354"/>
      </g>
     </g>
     <g id="text_3">
      <!-- 1974-01-01 -->
      <defs>
       <path d="M 8.203125 72.90625 
L 55.078125 72.90625 
L 55.078125 68.703125 
L 28.609375 0 
L 18.3125 0 
L 43.21875 64.59375 
L 8.203125 64.59375 
z
" id="DejaVuSans-37"/>
       <path d="M 37.796875 64.3125 
L 12.890625 25.390625 
L 37.796875 25.390625 
z
M 35.203125 72.90625 
L 47.609375 72.90625 
L 47.609375 25.390625 
L 58.015625 25.390625 
L 58.015625 17.1875 
L 47.609375 17.1875 
L 47.609375 0 
L 37.796875 0 
L 37.796875 17.1875 
L 4.890625 17.1875 
L 4.890625 26.703125 
z
" id="DejaVuSans-34"/>
      </defs>
      <g transform="translate(213.977166 271.764104)scale(0.08 -0.08)">
       <use xlink:href="#DejaVuSans-31"/>
       <use x="63.623047" xlink:href="#DejaVuSans-39"/>
       <use x="127.246094" xlink:href="#DejaVuSans-37"/>
       <use x="190.869141" xlink:href="#DejaVuSans-34"/>
       <use x="254.492188" xlink:href="#DejaVuSans-2d"/>
       <use x="290.576172" xlink:href="#DejaVuSans-30"/>
       <use x="354.199219" xlink:href="#DejaVuSans-31"/>
       <use x="417.822266" xlink:href="#DejaVuSans-2d"/>
       <use x="453.90625" xlink:href="#DejaVuSans-30"/>
       <use x="517.529297" xlink:href="#DejaVuSans-31"/>
      </g>
     </g>
    </g>
    <g id="xtick_4">
     <g id="line2d_7">
      <path clip-path="url(#pec9e6c8f89)" d="M 334.859113 258.685354 
L 334.859113 17.114646 
" style="fill:none;stroke:#000000;stroke-dasharray:0.8,1.32;stroke-dashoffset:0;stroke-width:0.8;"/>
     </g>
     <g id="line2d_8">
      <g>
       <use style="stroke:#000000;stroke-width:0.8;" x="334.859113" xlink:href="#mfcd5c46c00" y="258.685354"/>
      </g>
     </g>
     <g id="text_4">
      <!-- 1996-01-01 -->
      <defs>
       <path d="M 33.015625 40.375 
Q 26.375 40.375 22.484375 35.828125 
Q 18.609375 31.296875 18.609375 23.390625 
Q 18.609375 15.53125 22.484375 10.953125 
Q 26.375 6.390625 33.015625 6.390625 
Q 39.65625 6.390625 43.53125 10.953125 
Q 47.40625 15.53125 47.40625 23.390625 
Q 47.40625 31.296875 43.53125 35.828125 
Q 39.65625 40.375 33.015625 40.375 
z
M 52.59375 71.296875 
L 52.59375 62.3125 
Q 48.875 64.0625 45.09375 64.984375 
Q 41.3125 65.921875 37.59375 65.921875 
Q 27.828125 65.921875 22.671875 59.328125 
Q 17.53125 52.734375 16.796875 39.40625 
Q 19.671875 43.65625 24.015625 45.921875 
Q 28.375 48.1875 33.59375 48.1875 
Q 44.578125 48.1875 50.953125 41.515625 
Q 57.328125 34.859375 57.328125 23.390625 
Q 57.328125 12.15625 50.6875 5.359375 
Q 44.046875 -1.421875 33.015625 -1.421875 
Q 20.359375 -1.421875 13.671875 8.265625 
Q 6.984375 17.96875 6.984375 36.375 
Q 6.984375 53.65625 15.1875 63.9375 
Q 23.390625 74.21875 37.203125 74.21875 
Q 40.921875 74.21875 44.703125 73.484375 
Q 48.484375 72.75 52.59375 71.296875 
z
" id="DejaVuSans-36"/>
      </defs>
      <g transform="translate(311.612863 271.764104)scale(0.08 -0.08)">
       <use xlink:href="#DejaVuSans-31"/>
       <use x="63.623047" xlink:href="#DejaVuSans-39"/>
       <use x="127.246094" xlink:href="#DejaVuSans-39"/>
       <use x="190.869141" xlink:href="#DejaVuSans-36"/>
       <use x="254.492188" xlink:href="#DejaVuSans-2d"/>
       <use x="290.576172" xlink:href="#DejaVuSans-30"/>
       <use x="354.199219" xlink:href="#DejaVuSans-31"/>
       <use x="417.822266" xlink:href="#DejaVuSans-2d"/>
       <use x="453.90625" xlink:href="#DejaVuSans-30"/>
       <use x="517.529297" xlink:href="#DejaVuSans-31"/>
      </g>
     </g>
    </g>
    <g id="text_5">
     <!-- Date -->
     <defs>
      <path d="M 19.671875 64.796875 
L 19.671875 8.109375 
L 31.59375 8.109375 
Q 46.6875 8.109375 53.6875 14.9375 
Q 60.6875 21.78125 60.6875 36.53125 
Q 60.6875 51.171875 53.6875 57.984375 
Q 46.6875 64.796875 31.59375 64.796875 
z
M 9.8125 72.90625 
L 30.078125 72.90625 
Q 51.265625 72.90625 61.171875 64.09375 
Q 71.09375 55.28125 71.09375 36.53125 
Q 71.09375 17.671875 61.125 8.828125 
Q 51.171875 0 30.078125 0 
L 9.8125 0 
z
" id="DejaVuSans-44"/>
      <path d="M 34.28125 27.484375 
Q 23.390625 27.484375 19.1875 25 
Q 14.984375 22.515625 14.984375 16.5 
Q 14.984375 11.71875 18.140625 8.90625 
Q 21.296875 6.109375 26.703125 6.109375 
Q 34.1875 6.109375 38.703125 11.40625 
Q 43.21875 16.703125 43.21875 25.484375 
L 43.21875 27.484375 
z
M 52.203125 31.203125 
L 52.203125 0 
L 43.21875 0 
L 43.21875 8.296875 
Q 40.140625 3.328125 35.546875 0.953125 
Q 30.953125 -1.421875 24.3125 -1.421875 
Q 15.921875 -1.421875 10.953125 3.296875 
Q 6 8.015625 6 15.921875 
Q 6 25.140625 12.171875 29.828125 
Q 18.359375 34.515625 30.609375 34.515625 
L 43.21875 34.515625 
L 43.21875 35.40625 
Q 43.21875 41.609375 39.140625 45 
Q 35.0625 48.390625 27.6875 48.390625 
Q 23 48.390625 18.546875 47.265625 
Q 14.109375 46.140625 10.015625 43.890625 
L 10.015625 52.203125 
Q 14.9375 54.109375 19.578125 55.046875 
Q 24.21875 56 28.609375 56 
Q 40.484375 56 46.34375 49.84375 
Q 52.203125 43.703125 52.203125 31.203125 
z
" id="DejaVuSans-61"/>
      <path d="M 18.3125 70.21875 
L 18.3125 54.6875 
L 36.8125 54.6875 
L 36.8125 47.703125 
L 18.3125 47.703125 
L 18.3125 18.015625 
Q 18.3125 11.328125 20.140625 9.421875 
Q 21.96875 7.515625 27.59375 7.515625 
L 36.8125 7.515625 
L 36.8125 0 
L 27.59375 0 
Q 17.1875 0 13.234375 3.875 
Q 9.28125 7.765625 9.28125 18.015625 
L 9.28125 47.703125 
L 2.6875 47.703125 
L 2.6875 54.6875 
L 9.28125 54.6875 
L 9.28125 70.21875 
z
" id="DejaVuSans-74"/>
      <path d="M 56.203125 29.59375 
L 56.203125 25.203125 
L 14.890625 25.203125 
Q 15.484375 15.921875 20.484375 11.0625 
Q 25.484375 6.203125 34.421875 6.203125 
Q 39.59375 6.203125 44.453125 7.46875 
Q 49.3125 8.734375 54.109375 11.28125 
L 54.109375 2.78125 
Q 49.265625 0.734375 44.1875 -0.34375 
Q 39.109375 -1.421875 33.890625 -1.421875 
Q 20.796875 -1.421875 13.15625 6.1875 
Q 5.515625 13.8125 5.515625 26.8125 
Q 5.515625 40.234375 12.765625 48.109375 
Q 20.015625 56 32.328125 56 
Q 43.359375 56 49.78125 48.890625 
Q 56.203125 41.796875 56.203125 29.59375 
z
M 47.21875 32.234375 
Q 47.125 39.59375 43.09375 43.984375 
Q 39.0625 48.390625 32.421875 48.390625 
Q 24.90625 48.390625 20.390625 44.140625 
Q 15.875 39.890625 15.1875 32.171875 
z
" id="DejaVuSans-65"/>
     </defs>
     <g transform="translate(220.189141 285.786136)scale(0.11 -0.11)">
      <use xlink:href="#DejaVuSans-44"/>
      <use x="77.001953" xlink:href="#DejaVuSans-61"/>
      <use x="138.28125" xlink:href="#DejaVuSans-74"/>
      <use x="177.490234" xlink:href="#DejaVuSans-65"/>
     </g>
    </g>
   </g>
   <g id="matplotlib.axis_2">
    <g id="ytick_1">
     <g id="line2d_9">
      <path clip-path="url(#pec9e6c8f89)" d="M 37.504646 209.432843 
L 429.165354 209.432843 
" style="fill:none;stroke:#000000;stroke-dasharray:0.8,1.32;stroke-dashoffset:0;stroke-width:0.8;"/>
     </g>
     <g id="line2d_10">
      <defs>
       <path d="M 0 0 
L -3.5 0 
" id="m65639c2c79" style="stroke:#000000;stroke-width:0.8;"/>
      </defs>
      <g>
       <use style="stroke:#000000;stroke-width:0.8;" x="37.504646" xlink:href="#m65639c2c79" y="209.432843"/>
      </g>
     </g>
     <g id="text_6">
      <!-- 50 -->
      <g transform="translate(20.324646 212.472218)scale(0.08 -0.08)">
       <use xlink:href="#DejaVuSans-35"/>
       <use x="63.623047" xlink:href="#DejaVuSans-30"/>
      </g>
     </g>
    </g>
    <g id="ytick_2">
     <g id="line2d_11">
      <path clip-path="url(#pec9e6c8f89)" d="M 37.504646 159.982531 
L 429.165354 159.982531 
" style="fill:none;stroke:#000000;stroke-dasharray:0.8,1.32;stroke-dashoffset:0;stroke-width:0.8;"/>
     </g>
     <g id="line2d_12">
      <g>
       <use style="stroke:#000000;stroke-width:0.8;" x="37.504646" xlink:href="#m65639c2c79" y="159.982531"/>
      </g>
     </g>
     <g id="text_7">
      <!-- 100 -->
      <g transform="translate(15.234646 163.021906)scale(0.08 -0.08)">
       <use xlink:href="#DejaVuSans-31"/>
       <use x="63.623047" xlink:href="#DejaVuSans-30"/>
       <use x="127.246094" xlink:href="#DejaVuSans-30"/>
      </g>
     </g>
    </g>
    <g id="ytick_3">
     <g id="line2d_13">
      <path clip-path="url(#pec9e6c8f89)" d="M 37.504646 110.532219 
L 429.165354 110.532219 
" style="fill:none;stroke:#000000;stroke-dasharray:0.8,1.32;stroke-dashoffset:0;stroke-width:0.8;"/>
     </g>
     <g id="line2d_14">
      <g>
       <use style="stroke:#000000;stroke-width:0.8;" x="37.504646" xlink:href="#m65639c2c79" y="110.532219"/>
      </g>
     </g>
     <g id="text_8">
      <!-- 150 -->
      <g transform="translate(15.234646 113.571594)scale(0.08 -0.08)">
       <use xlink:href="#DejaVuSans-31"/>
       <use x="63.623047" xlink:href="#DejaVuSans-35"/>
       <use x="127.246094" xlink:href="#DejaVuSans-30"/>
      </g>
     </g>
    </g>
    <g id="ytick_4">
     <g id="line2d_15">
      <path clip-path="url(#pec9e6c8f89)" d="M 37.504646 61.081907 
L 429.165354 61.081907 
" style="fill:none;stroke:#000000;stroke-dasharray:0.8,1.32;stroke-dashoffset:0;stroke-width:0.8;"/>
     </g>
     <g id="line2d_16">
      <g>
       <use style="stroke:#000000;stroke-width:0.8;" x="37.504646" xlink:href="#m65639c2c79" y="61.081907"/>
      </g>
     </g>
     <g id="text_9">
      <!-- 200 -->
      <g transform="translate(15.234646 64.121282)scale(0.08 -0.08)">
       <use xlink:href="#DejaVuSans-32"/>
       <use x="63.623047" xlink:href="#DejaVuSans-30"/>
       <use x="127.246094" xlink:href="#DejaVuSans-30"/>
      </g>
     </g>
    </g>
    <g id="text_10">
     <!-- Price -->
     <defs>
      <path d="M 19.671875 64.796875 
L 19.671875 37.40625 
L 32.078125 37.40625 
Q 38.96875 37.40625 42.71875 40.96875 
Q 46.484375 44.53125 46.484375 51.125 
Q 46.484375 57.671875 42.71875 61.234375 
Q 38.96875 64.796875 32.078125 64.796875 
z
M 9.8125 72.90625 
L 32.078125 72.90625 
Q 44.34375 72.90625 50.609375 67.359375 
Q 56.890625 61.8125 56.890625 51.125 
Q 56.890625 40.328125 50.609375 34.8125 
Q 44.34375 29.296875 32.078125 29.296875 
L 19.671875 29.296875 
L 19.671875 0 
L 9.8125 0 
z
" id="DejaVuSans-50"/>
      <path d="M 41.109375 46.296875 
Q 39.59375 47.171875 37.8125 47.578125 
Q 36.03125 48 33.890625 48 
Q 26.265625 48 22.1875 43.046875 
Q 18.109375 38.09375 18.109375 28.8125 
L 18.109375 0 
L 9.078125 0 
L 9.078125 54.6875 
L 18.109375 54.6875 
L 18.109375 46.1875 
Q 20.953125 51.171875 25.484375 53.578125 
Q 30.03125 56 36.53125 56 
Q 37.453125 56 38.578125 55.875 
Q 39.703125 55.765625 41.0625 55.515625 
z
" id="DejaVuSans-72"/>
      <path d="M 9.421875 54.6875 
L 18.40625 54.6875 
L 18.40625 0 
L 9.421875 0 
z
M 9.421875 75.984375 
L 18.40625 75.984375 
L 18.40625 64.59375 
L 9.421875 64.59375 
z
" id="DejaVuSans-69"/>
      <path d="M 48.78125 52.59375 
L 48.78125 44.1875 
Q 44.96875 46.296875 41.140625 47.34375 
Q 37.3125 48.390625 33.40625 48.390625 
Q 24.65625 48.390625 19.8125 42.84375 
Q 14.984375 37.3125 14.984375 27.296875 
Q 14.984375 17.28125 19.8125 11.734375 
Q 24.65625 6.203125 33.40625 6.203125 
Q 37.3125 6.203125 41.140625 7.25 
Q 44.96875 8.296875 48.78125 10.40625 
L 48.78125 2.09375 
Q 45.015625 0.34375 40.984375 -0.53125 
Q 36.96875 -1.421875 32.421875 -1.421875 
Q 20.0625 -1.421875 12.78125 6.34375 
Q 5.515625 14.109375 5.515625 27.296875 
Q 5.515625 40.671875 12.859375 48.328125 
Q 20.21875 56 33.015625 56 
Q 37.15625 56 41.109375 55.140625 
Q 45.0625 54.296875 48.78125 52.59375 
z
" id="DejaVuSans-63"/>
     </defs>
     <g transform="translate(8.946989 151.412813)rotate(-90)scale(0.11 -0.11)">
      <use xlink:href="#DejaVuSans-50"/>
      <use x="60.287109" xlink:href="#DejaVuSans-72"/>
      <use x="101.400391" xlink:href="#DejaVuSans-69"/>
      <use x="129.183594" xlink:href="#DejaVuSans-63"/>
      <use x="184.164062" xlink:href="#DejaVuSans-65"/>
     </g>
    </g>
   </g>
   <g id="line2d_17">
    <path clip-path="url(#pec9e6c8f89)" d="M 117.387293 237.639301 
L 117.763984 237.500841 
L 118.10422 237.125018 
L 119.22214 237.045898 
L 119.963369 236.729416 
L 120.340059 236.294253 
L 121.081289 236.076672 
L 121.822518 235.463488 
L 122.199208 235.473378 
L 122.551596 235.641509 
L 123.292825 235.137116 
L 124.410745 234.721733 
L 127.72805 235.236016 
L 128.10474 235.226126 
L 128.469279 235.443708 
L 130.328428 235.532718 
L 130.705118 235.631619 
L 131.422045 235.503048 
L 132.163274 235.374477 
L 133.281194 234.949205 
L 134.399114 234.553602 
L 135.517033 233.337124 
L 136.598499 233.178883 
L 137.716419 233.307454 
L 139.198877 232.70416 
L 141.045875 232.70416 
L 142.905024 232.486579 
L 146.222329 232.387678 
L 147.340248 232.229437 
L 147.716939 232.328338 
L 150.293014 232.239327 
L 151.034244 232.328338 
L 152.516702 232.407458 
L 157.705307 232.318448 
L 158.798924 232.150317 
L 159.916844 231.873395 
L 160.293534 231.833835 
L 160.658073 231.675594 
L 161.034764 231.675594 
L 162.152683 231.388782 
L 165.834527 230.726148 
L 166.928144 230.330545 
L 167.669374 230.261315 
L 169.163984 230.290985 
L 171.740059 230.221755 
L 174.704976 229.796482 
L 175.458357 229.796482 
L 175.810745 229.796482 
L 176.551974 229.638241 
L 177.669894 229.598681 
L 178.046584 229.598681 
L 178.787813 229.43055 
L 180.245969 229.371209 
L 181.363889 229.371209 
L 182.481809 229.232748 
L 183.964267 229.173408 
L 185.422423 228.975607 
L 186.163653 228.995387 
L 187.658262 228.837146 
L 188.776182 228.738245 
L 198.375709 227.84814 
L 199.481478 227.650338 
L 200.234858 227.610778 
L 200.976088 227.482207 
L 205.411312 226.36463 
L 207.610697 226.147049 
L 208.351927 225.850347 
L 212.058073 224.76244 
L 213.175993 224.267937 
L 214.293913 223.872335 
L 215.035142 223.575633 
L 215.411832 223.476732 
L 216.128759 222.982229 
L 216.869988 222.685527 
L 219.470366 221.399819 
L 221.305213 220.509713 
L 222.423132 220.114111 
L 223.905591 219.421807 
L 224.622518 219.322906 
L 225.363747 219.026204 
L 226.104976 218.729502 
L 230.929043 217.443794 
L 232.046962 216.949291 
L 232.788191 216.652589 
L 234.623038 215.16908 
L 234.987577 215.16908 
L 235.364267 214.377875 
L 235.740957 214.180073 
L 237.600106 212.10316 
L 237.940343 211.608657 
L 238.317033 211.311955 
L 239.058262 210.42185 
L 239.422801 210.125148 
L 240.917411 207.949334 
L 242.035331 206.861427 
L 242.752258 206.465825 
L 243.116797 206.366924 
L 244.611407 204.883415 
L 246.093865 203.696607 
L 247.199634 203.399905 
L 250.164551 201.125191 
L 250.541241 200.828489 
L 250.917931 200.235085 
L 253.117317 198.454874 
L 253.858546 197.960371 
L 254.976466 196.872464 
L 255.693392 196.18016 
L 257.929232 193.11424 
L 258.293771 192.520837 
L 259.035 191.729632 
L 259.788381 190.443924 
L 263.470225 182.828576 
L 264.952683 178.872551 
L 265.693912 177.290141 
L 266.058451 177.19124 
L 266.811832 175.905532 
L 269.011217 171.257203 
L 269.752447 170.169296 
L 271.611596 166.509973 
L 272.352825 165.817668 
L 273.106206 165.224264 
L 273.446442 165.224264 
L 273.823132 164.927563 
L 274.928901 162.455047 
L 275.305591 162.257246 
L 275.682281 162.257246 
L 276.04682 161.861643 
L 276.423511 161.960544 
L 276.78805 162.257246 
L 277.54143 161.960544 
L 277.881667 161.861643 
L 278.258357 161.169339 
L 278.622896 160.773736 
L 278.999586 160.575935 
L 279.740816 159.883631 
L 281.223274 158.597923 
L 281.976655 157.411115 
L 283.070272 156.52101 
L 283.446962 156.323208 
L 284.188191 155.630904 
L 285.67065 154.542997 
L 286.04734 154.345196 
L 286.764267 153.257289 
L 289.000106 151.971581 
L 289.741336 151.081475 
L 290.482565 150.19137 
L 290.859255 150.389171 
L 291.199492 150.982575 
L 291.576182 151.378177 
L 292.68195 150.586972 
L 293.058641 150.488071 
L 293.435331 150.092469 
L 294.17656 149.696866 
L 294.541099 149.301264 
L 295.29448 148.312258 
L 297.870555 145.44414 
L 300.082092 143.663928 
L 300.458782 142.971624 
L 300.823321 142.674922 
L 303.059161 139.905705 
L 304.17708 138.619997 
L 304.517317 138.026593 
L 305.258546 136.543083 
L 305.999775 135.751878 
L 306.376466 135.751878 
L 306.753156 135.455177 
L 307.494385 134.36727 
L 307.858924 133.971667 
L 308.235615 132.78486 
L 309.329232 131.400251 
L 309.693771 131.20245 
L 311.188381 127.839829 
L 311.55292 126.949723 
L 311.92961 126.653021 
L 312.670839 125.664015 
L 313.764456 125.268412 
L 314.505685 124.378307 
L 314.870224 124.180505 
L 315.623605 123.3893 
L 315.988144 123.191499 
L 316.729373 122.202493 
L 317.106064 122.103592 
L 317.482754 121.80689 
L 317.835142 121.312387 
L 318.953061 120.323381 
L 319.694291 119.631077 
L 320.070981 119.334375 
L 320.43552 118.740971 
L 320.81221 118.345369 
L 321.176749 118.147567 
L 321.55344 117.653064 
L 322.647057 116.664058 
L 323.011596 116.268455 
L 323.752825 115.971754 
L 324.506206 115.47725 
L 324.870745 114.883847 
L 325.611974 114.191542 
L 325.988664 114.191542 
L 326.705591 113.400337 
L 327.082281 113.301437 
L 327.823511 112.609132 
L 328.94143 111.224524 
L 329.305969 111.125623 
L 332.258735 108.158604 
L 333.376655 107.4663 
L 333.741194 107.070697 
L 334.482423 106.675095 
L 334.859113 105.88389 
L 335.235804 105.587188 
L 336.329421 104.202579 
L 337.824031 102.916871 
L 338.929799 101.532262 
L 339.68318 100.938859 
L 340.400106 100.741057 
L 340.764645 100.741057 
L 343.000484 98.960846 
L 344.835331 98.466343 
L 345.19987 98.070741 
L 345.57656 97.872939 
L 345.941099 97.477337 
L 347.435709 96.587231 
L 348.176938 95.993828 
L 348.893865 95.894927 
L 349.270555 94.80702 
L 350.011785 94.708119 
L 350.376324 94.015815 
L 350.753014 93.620213 
L 351.129704 92.927908 
L 352.235473 91.938902 
L 352.612163 91.444399 
L 352.988853 90.752094 
L 353.341241 89.763088 
L 353.717931 89.861989 
L 354.08247 89.565287 
L 354.459161 88.576281 
L 354.8237 88.081778 
L 355.20039 88.081778 
L 355.57708 87.191672 
L 356.682849 86.202666 
L 357.059539 85.213659 
L 357.436229 84.818057 
L 357.776466 84.719156 
L 358.153156 84.422454 
L 358.517695 83.532349 
L 358.894385 83.136746 
L 359.258924 83.433448 
L 359.635614 83.433448 
L 360.012305 82.741144 
L 360.376844 83.235647 
L 361.118073 83.433448 
L 361.871454 82.840044 
L 362.21169 82.345541 
L 362.58838 81.554336 
L 363.694149 80.862032 
L 364.070839 80.367529 
L 365.553298 79.081821 
L 366.646915 77.004908 
L 367.023605 77.697212 
L 367.388144 77.993914 
L 367.764834 77.796113 
L 368.882754 75.8181 
L 369.247293 76.015901 
L 369.623983 75.917001 
L 369.988522 75.422498 
L 370.365213 74.631293 
L 371.470981 73.543386 
L 372.21221 72.059876 
L 372.95344 71.763175 
L 373.33013 71.169771 
L 374.071359 69.290659 
L 374.812588 69.38956 
L 375.906205 67.312646 
L 376.270744 67.411547 
L 376.647435 67.312646 
L 377.388664 64.939032 
L 377.765354 62.268715 
L 378.129893 61.972013 
L 378.506584 62.961019 
L 378.871123 62.961019 
L 379.247813 61.774212 
L 379.624503 61.675311 
L 379.96474 61.378609 
L 380.34143 60.389603 
L 381.082659 59.301696 
L 381.823889 57.323683 
L 382.565118 59.202795 
L 382.941808 59.103895 
L 383.306347 58.015988 
L 383.683038 57.682693 
L 384.059728 56.902367 
L 384.399964 55.852042 
L 384.776655 55.242814 
L 385.141194 54.40117 
L 385.882423 53.562493 
L 386.259113 53.499196 
L 387.000343 51.99294 
L 387.377033 50.367014 
L 389.224031 47.293182 
L 389.58857 46.0411 
L 390.329799 42.274964 
L 390.706489 42.597381 
L 391.083179 42.412436 
L 391.447718 44.273746 
L 391.824409 48.073508 
L 392.188948 49.809214 
L 392.565638 49.280096 
L 392.942328 48.516583 
L 393.282565 48.724274 
L 394.023794 48.203068 
L 394.400484 46.454505 
L 394.765023 46.517801 
L 395.141714 45.806706 
L 395.518404 45.395279 
L 396.259633 44.037374 
L 397.000863 43.786166 
L 397.377553 43.99089 
L 398.09448 43.870232 
L 398.835709 44.071989 
L 399.576938 43.355948 
L 399.953629 43.007818 
L 402.153014 38.289269 
L 402.894243 36.548618 
L 403.270934 36.548618 
L 404.388853 34.777308 
L 404.753392 34.62599 
L 405.130082 34.211597 
L 405.494622 34.15819 
L 406.248002 33.064349 
L 406.97708 32.215782 
L 407.341619 32.684571 
L 407.718309 32.871493 
L 408.082848 32.806219 
L 408.836229 30.407879 
L 409.200768 29.791728 
L 409.577458 30.176451 
L 409.941997 30.204143 
L 410.318688 29.817442 
L 410.695378 28.459536 
L 411.035614 29.137995 
L 411.412305 29.636454 
L 411.776844 29.516784 
L 413.271454 27.819649 
L 413.635993 27.734595 
L 414.012683 27.336025 
L 414.753912 26.085921 
L 415.470839 25.499441 
L 416.212068 24.654829 
L 416.588759 24.459995 
L 416.953298 24.069338 
L 417.329988 24.235491 
L 417.706678 24.008019 
L 418.071217 23.988239 
L 418.447908 24.371973 
L 418.812447 25.190871 
L 419.189137 26.552732 
L 419.906064 25.488562 
L 420.282754 25.278892 
L 421.023983 24.074283 
L 421.388522 23.622307 
L 421.765212 23.686592 
L 422.141903 24.02681 
L 422.883132 23.348352 
L 423.247671 23.651977 
L 423.624361 23.394835 
L 424.001052 23.689559 
L 424.353439 23.422527 
L 424.73013 22.601652 
L 425.471359 21.67792 
L 425.835898 21.622536 
L 426.589279 20.526717 
L 427.330508 19.346833 
L 427.695047 18.731671 
L 428.071737 17.40937 
L 428.448428 17.114646 
L 428.788664 17.810906 
L 429.165354 17.40937 
L 429.165354 17.40937 
" style="fill:none;stroke:#009afa;stroke-linecap:round;"/>
   </g>
   <g id="line2d_18">
    <path clip-path="url(#pec9e6c8f89)" d="M 37.504646 258.685354 
L 41.93987 258.586454 
L 46.375095 258.586454 
L 50.810319 258.685354 
L 55.257695 258.685354 
L 59.69292 258.685354 
L 64.128144 258.685354 
L 68.563369 258.685354 
L 73.010745 258.685354 
L 77.445969 258.586454 
L 81.881194 258.586454 
L 86.316419 258.586454 
L 90.763795 258.586454 
L 95.199019 258.586454 
L 99.634244 258.586454 
L 104.069468 258.487553 
L 108.516844 258.487553 
L 112.952069 258.487553 
L 117.387293 258.388652 
L 121.822518 258.289752 
L 126.269894 258.190851 
L 130.705118 258.190851 
L 135.140343 258.190851 
L 139.575568 258.190851 
L 144.022943 258.091951 
L 148.458168 258.091951 
L 152.893393 257.99305 
L 157.328617 257.894149 
L 161.775993 257.795249 
L 166.211218 257.597447 
L 170.646442 257.498547 
L 175.081667 257.399646 
L 179.529043 257.300746 
L 183.964267 257.102944 
L 188.399492 256.905143 
L 192.834716 256.608441 
L 197.282092 256.212839 
L 201.717317 255.817236 
L 206.152541 255.421634 
L 210.587766 255.026031 
L 215.035142 254.432627 
L 219.470366 253.740323 
L 223.905591 253.048019 
L 228.340816 252.454615 
L 232.788191 251.861211 
L 237.223416 251.366708 
L 241.658641 250.773304 
L 246.093865 250.081 
L 250.541241 249.388696 
L 254.976466 248.696391 
L 259.41169 247.608484 
L 263.846915 246.124975 
L 268.294291 244.245863 
L 272.729515 242.070049 
L 277.16474 240.289838 
L 281.599964 238.608528 
L 286.04734 236.828316 
L 290.482565 235.048105 
L 294.91779 233.070093 
L 299.353014 230.696478 
L 303.80039 227.729459 
L 308.235615 224.564639 
L 312.670839 220.905316 
L 317.106064 217.048192 
L 321.55344 213.982272 
L 325.988664 210.817452 
L 330.423889 207.553732 
L 334.859113 203.103204 
L 339.306489 198.257073 
L 343.741714 193.608744 
L 348.176938 188.861514 
L 352.612163 182.927476 
L 357.059539 176.894538 
L 361.494763 172.839613 
L 365.929988 164.927563 
L 370.365213 157.510016 
L 374.812588 149.202363 
L 379.247813 140.499108 
L 383.683038 131.993655 
L 388.118262 123.488201 
L 392.565638 113.79594 
L 397.000863 102.323467 
L 401.436087 94.905921 
L 405.871312 90.257591 
L 410.318688 85.807063 
L 414.753912 81.653237 
L 419.189137 77.103808 
" style="fill:none;stroke:#e36f47;stroke-linecap:round;"/>
   </g>
   <g id="patch_3">
    <path d="M 37.504646 258.685354 
L 37.504646 17.114646 
" style="fill:none;stroke:#000000;stroke-linecap:square;stroke-linejoin:miter;stroke-width:0.8;"/>
   </g>
   <g id="patch_4">
    <path d="M 429.165354 258.685354 
L 429.165354 17.114646 
" style="fill:none;stroke:#000000;stroke-linecap:square;stroke-linejoin:miter;stroke-width:0.8;"/>
   </g>
   <g id="patch_5">
    <path d="M 37.504646 258.685354 
L 429.165354 258.685354 
" style="fill:none;stroke:#000000;stroke-linecap:square;stroke-linejoin:miter;stroke-width:0.8;"/>
   </g>
   <g id="patch_6">
    <path d="M 37.504646 17.114646 
L 429.165354 17.114646 
" style="fill:none;stroke:#000000;stroke-linecap:square;stroke-linejoin:miter;stroke-width:0.8;"/>
   </g>
   <g id="text_11">
    <!-- Urban CPI vs. Higher Education -->
    <defs>
     <path d="M 8.6875 72.90625 
L 18.609375 72.90625 
L 18.609375 28.609375 
Q 18.609375 16.890625 22.84375 11.734375 
Q 27.09375 6.59375 36.625 6.59375 
Q 46.09375 6.59375 50.34375 11.734375 
Q 54.59375 16.890625 54.59375 28.609375 
L 54.59375 72.90625 
L 64.5 72.90625 
L 64.5 27.390625 
Q 64.5 13.140625 57.4375 5.859375 
Q 50.390625 -1.421875 36.625 -1.421875 
Q 22.796875 -1.421875 15.734375 5.859375 
Q 8.6875 13.140625 8.6875 27.390625 
z
" id="DejaVuSans-55"/>
     <path d="M 48.6875 27.296875 
Q 48.6875 37.203125 44.609375 42.84375 
Q 40.53125 48.484375 33.40625 48.484375 
Q 26.265625 48.484375 22.1875 42.84375 
Q 18.109375 37.203125 18.109375 27.296875 
Q 18.109375 17.390625 22.1875 11.75 
Q 26.265625 6.109375 33.40625 6.109375 
Q 40.53125 6.109375 44.609375 11.75 
Q 48.6875 17.390625 48.6875 27.296875 
z
M 18.109375 46.390625 
Q 20.953125 51.265625 25.265625 53.625 
Q 29.59375 56 35.59375 56 
Q 45.5625 56 51.78125 48.09375 
Q 58.015625 40.1875 58.015625 27.296875 
Q 58.015625 14.40625 51.78125 6.484375 
Q 45.5625 -1.421875 35.59375 -1.421875 
Q 29.59375 -1.421875 25.265625 0.953125 
Q 20.953125 3.328125 18.109375 8.203125 
L 18.109375 0 
L 9.078125 0 
L 9.078125 75.984375 
L 18.109375 75.984375 
z
" id="DejaVuSans-62"/>
     <path d="M 54.890625 33.015625 
L 54.890625 0 
L 45.90625 0 
L 45.90625 32.71875 
Q 45.90625 40.484375 42.875 44.328125 
Q 39.84375 48.1875 33.796875 48.1875 
Q 26.515625 48.1875 22.3125 43.546875 
Q 18.109375 38.921875 18.109375 30.90625 
L 18.109375 0 
L 9.078125 0 
L 9.078125 54.6875 
L 18.109375 54.6875 
L 18.109375 46.1875 
Q 21.34375 51.125 25.703125 53.5625 
Q 30.078125 56 35.796875 56 
Q 45.21875 56 50.046875 50.171875 
Q 54.890625 44.34375 54.890625 33.015625 
z
" id="DejaVuSans-6e"/>
     <path id="DejaVuSans-20"/>
     <path d="M 64.40625 67.28125 
L 64.40625 56.890625 
Q 59.421875 61.53125 53.78125 63.8125 
Q 48.140625 66.109375 41.796875 66.109375 
Q 29.296875 66.109375 22.65625 58.46875 
Q 16.015625 50.828125 16.015625 36.375 
Q 16.015625 21.96875 22.65625 14.328125 
Q 29.296875 6.6875 41.796875 6.6875 
Q 48.140625 6.6875 53.78125 8.984375 
Q 59.421875 11.28125 64.40625 15.921875 
L 64.40625 5.609375 
Q 59.234375 2.09375 53.4375 0.328125 
Q 47.65625 -1.421875 41.21875 -1.421875 
Q 24.65625 -1.421875 15.125 8.703125 
Q 5.609375 18.84375 5.609375 36.375 
Q 5.609375 53.953125 15.125 64.078125 
Q 24.65625 74.21875 41.21875 74.21875 
Q 47.75 74.21875 53.53125 72.484375 
Q 59.328125 70.75 64.40625 67.28125 
z
" id="DejaVuSans-43"/>
     <path d="M 9.8125 72.90625 
L 19.671875 72.90625 
L 19.671875 0 
L 9.8125 0 
z
" id="DejaVuSans-49"/>
     <path d="M 2.984375 54.6875 
L 12.5 54.6875 
L 29.59375 8.796875 
L 46.6875 54.6875 
L 56.203125 54.6875 
L 35.6875 0 
L 23.484375 0 
z
" id="DejaVuSans-76"/>
     <path d="M 44.28125 53.078125 
L 44.28125 44.578125 
Q 40.484375 46.53125 36.375 47.5 
Q 32.28125 48.484375 27.875 48.484375 
Q 21.1875 48.484375 17.84375 46.4375 
Q 14.5 44.390625 14.5 40.28125 
Q 14.5 37.15625 16.890625 35.375 
Q 19.28125 33.59375 26.515625 31.984375 
L 29.59375 31.296875 
Q 39.15625 29.25 43.1875 25.515625 
Q 47.21875 21.78125 47.21875 15.09375 
Q 47.21875 7.46875 41.1875 3.015625 
Q 35.15625 -1.421875 24.609375 -1.421875 
Q 20.21875 -1.421875 15.453125 -0.5625 
Q 10.6875 0.296875 5.421875 2 
L 5.421875 11.28125 
Q 10.40625 8.6875 15.234375 7.390625 
Q 20.0625 6.109375 24.8125 6.109375 
Q 31.15625 6.109375 34.5625 8.28125 
Q 37.984375 10.453125 37.984375 14.40625 
Q 37.984375 18.0625 35.515625 20.015625 
Q 33.0625 21.96875 24.703125 23.78125 
L 21.578125 24.515625 
Q 13.234375 26.265625 9.515625 29.90625 
Q 5.8125 33.546875 5.8125 39.890625 
Q 5.8125 47.609375 11.28125 51.796875 
Q 16.75 56 26.8125 56 
Q 31.78125 56 36.171875 55.265625 
Q 40.578125 54.546875 44.28125 53.078125 
z
" id="DejaVuSans-73"/>
     <path d="M 10.6875 12.40625 
L 21 12.40625 
L 21 0 
L 10.6875 0 
z
" id="DejaVuSans-2e"/>
     <path d="M 9.8125 72.90625 
L 19.671875 72.90625 
L 19.671875 43.015625 
L 55.515625 43.015625 
L 55.515625 72.90625 
L 65.375 72.90625 
L 65.375 0 
L 55.515625 0 
L 55.515625 34.71875 
L 19.671875 34.71875 
L 19.671875 0 
L 9.8125 0 
z
" id="DejaVuSans-48"/>
     <path d="M 45.40625 27.984375 
Q 45.40625 37.75 41.375 43.109375 
Q 37.359375 48.484375 30.078125 48.484375 
Q 22.859375 48.484375 18.828125 43.109375 
Q 14.796875 37.75 14.796875 27.984375 
Q 14.796875 18.265625 18.828125 12.890625 
Q 22.859375 7.515625 30.078125 7.515625 
Q 37.359375 7.515625 41.375 12.890625 
Q 45.40625 18.265625 45.40625 27.984375 
z
M 54.390625 6.78125 
Q 54.390625 -7.171875 48.1875 -13.984375 
Q 42 -20.796875 29.203125 -20.796875 
Q 24.46875 -20.796875 20.265625 -20.09375 
Q 16.0625 -19.390625 12.109375 -17.921875 
L 12.109375 -9.1875 
Q 16.0625 -11.328125 19.921875 -12.34375 
Q 23.78125 -13.375 27.78125 -13.375 
Q 36.625 -13.375 41.015625 -8.765625 
Q 45.40625 -4.15625 45.40625 5.171875 
L 45.40625 9.625 
Q 42.625 4.78125 38.28125 2.390625 
Q 33.9375 0 27.875 0 
Q 17.828125 0 11.671875 7.65625 
Q 5.515625 15.328125 5.515625 27.984375 
Q 5.515625 40.671875 11.671875 48.328125 
Q 17.828125 56 27.875 56 
Q 33.9375 56 38.28125 53.609375 
Q 42.625 51.21875 45.40625 46.390625 
L 45.40625 54.6875 
L 54.390625 54.6875 
z
" id="DejaVuSans-67"/>
     <path d="M 54.890625 33.015625 
L 54.890625 0 
L 45.90625 0 
L 45.90625 32.71875 
Q 45.90625 40.484375 42.875 44.328125 
Q 39.84375 48.1875 33.796875 48.1875 
Q 26.515625 48.1875 22.3125 43.546875 
Q 18.109375 38.921875 18.109375 30.90625 
L 18.109375 0 
L 9.078125 0 
L 9.078125 75.984375 
L 18.109375 75.984375 
L 18.109375 46.1875 
Q 21.34375 51.125 25.703125 53.5625 
Q 30.078125 56 35.796875 56 
Q 45.21875 56 50.046875 50.171875 
Q 54.890625 44.34375 54.890625 33.015625 
z
" id="DejaVuSans-68"/>
     <path d="M 9.8125 72.90625 
L 55.90625 72.90625 
L 55.90625 64.59375 
L 19.671875 64.59375 
L 19.671875 43.015625 
L 54.390625 43.015625 
L 54.390625 34.71875 
L 19.671875 34.71875 
L 19.671875 8.296875 
L 56.78125 8.296875 
L 56.78125 0 
L 9.8125 0 
z
" id="DejaVuSans-45"/>
     <path d="M 45.40625 46.390625 
L 45.40625 75.984375 
L 54.390625 75.984375 
L 54.390625 0 
L 45.40625 0 
L 45.40625 8.203125 
Q 42.578125 3.328125 38.25 0.953125 
Q 33.9375 -1.421875 27.875 -1.421875 
Q 17.96875 -1.421875 11.734375 6.484375 
Q 5.515625 14.40625 5.515625 27.296875 
Q 5.515625 40.1875 11.734375 48.09375 
Q 17.96875 56 27.875 56 
Q 33.9375 56 38.25 53.625 
Q 42.578125 51.265625 45.40625 46.390625 
z
M 14.796875 27.296875 
Q 14.796875 17.390625 18.875 11.75 
Q 22.953125 6.109375 30.078125 6.109375 
Q 37.203125 6.109375 41.296875 11.75 
Q 45.40625 17.390625 45.40625 27.296875 
Q 45.40625 37.203125 41.296875 42.84375 
Q 37.203125 48.484375 30.078125 48.484375 
Q 22.953125 48.484375 18.875 42.84375 
Q 14.796875 37.203125 14.796875 27.296875 
z
" id="DejaVuSans-64"/>
     <path d="M 8.5 21.578125 
L 8.5 54.6875 
L 17.484375 54.6875 
L 17.484375 21.921875 
Q 17.484375 14.15625 20.5 10.265625 
Q 23.53125 6.390625 29.59375 6.390625 
Q 36.859375 6.390625 41.078125 11.03125 
Q 45.3125 15.671875 45.3125 23.6875 
L 45.3125 54.6875 
L 54.296875 54.6875 
L 54.296875 0 
L 45.3125 0 
L 45.3125 8.40625 
Q 42.046875 3.421875 37.71875 1 
Q 33.40625 -1.421875 27.6875 -1.421875 
Q 18.265625 -1.421875 13.375 4.4375 
Q 8.5 10.296875 8.5 21.578125 
z
M 31.109375 56 
z
" id="DejaVuSans-75"/>
     <path d="M 30.609375 48.390625 
Q 23.390625 48.390625 19.1875 42.75 
Q 14.984375 37.109375 14.984375 27.296875 
Q 14.984375 17.484375 19.15625 11.84375 
Q 23.34375 6.203125 30.609375 6.203125 
Q 37.796875 6.203125 41.984375 11.859375 
Q 46.1875 17.53125 46.1875 27.296875 
Q 46.1875 37.015625 41.984375 42.703125 
Q 37.796875 48.390625 30.609375 48.390625 
z
M 30.609375 56 
Q 42.328125 56 49.015625 48.375 
Q 55.71875 40.765625 55.71875 27.296875 
Q 55.71875 13.875 49.015625 6.21875 
Q 42.328125 -1.421875 30.609375 -1.421875 
Q 18.84375 -1.421875 12.171875 6.21875 
Q 5.515625 13.875 5.515625 27.296875 
Q 5.515625 40.765625 12.171875 48.375 
Q 18.84375 56 30.609375 56 
z
" id="DejaVuSans-6f"/>
    </defs>
    <g transform="translate(123.953437 11.114646)scale(0.14 -0.14)">
     <use xlink:href="#DejaVuSans-55"/>
     <use x="73.193359" xlink:href="#DejaVuSans-72"/>
     <use x="114.306641" xlink:href="#DejaVuSans-62"/>
     <use x="177.783203" xlink:href="#DejaVuSans-61"/>
     <use x="239.0625" xlink:href="#DejaVuSans-6e"/>
     <use x="302.441406" xlink:href="#DejaVuSans-20"/>
     <use x="334.228516" xlink:href="#DejaVuSans-43"/>
     <use x="404.052734" xlink:href="#DejaVuSans-50"/>
     <use x="464.355469" xlink:href="#DejaVuSans-49"/>
     <use x="493.847656" xlink:href="#DejaVuSans-20"/>
     <use x="525.634766" xlink:href="#DejaVuSans-76"/>
     <use x="584.814453" xlink:href="#DejaVuSans-73"/>
     <use x="636.914062" xlink:href="#DejaVuSans-2e"/>
     <use x="668.701172" xlink:href="#DejaVuSans-20"/>
     <use x="700.488281" xlink:href="#DejaVuSans-48"/>
     <use x="775.683594" xlink:href="#DejaVuSans-69"/>
     <use x="803.466797" xlink:href="#DejaVuSans-67"/>
     <use x="866.943359" xlink:href="#DejaVuSans-68"/>
     <use x="930.322266" xlink:href="#DejaVuSans-65"/>
     <use x="991.845703" xlink:href="#DejaVuSans-72"/>
     <use x="1032.958984" xlink:href="#DejaVuSans-20"/>
     <use x="1064.746094" xlink:href="#DejaVuSans-45"/>
     <use x="1127.929688" xlink:href="#DejaVuSans-64"/>
     <use x="1191.40625" xlink:href="#DejaVuSans-75"/>
     <use x="1254.785156" xlink:href="#DejaVuSans-63"/>
     <use x="1309.765625" xlink:href="#DejaVuSans-61"/>
     <use x="1371.044922" xlink:href="#DejaVuSans-74"/>
     <use x="1410.253906" xlink:href="#DejaVuSans-69"/>
     <use x="1438.037109" xlink:href="#DejaVuSans-6f"/>
     <use x="1499.21875" xlink:href="#DejaVuSans-6e"/>
    </g>
   </g>
   <g id="legend_1">
    <g id="patch_7">
     <path d="M 43.104646 46.999646 
L 152.987146 46.999646 
Q 154.587146 46.999646 154.587146 45.399646 
L 154.587146 22.714646 
Q 154.587146 21.114646 152.987146 21.114646 
L 43.104646 21.114646 
Q 41.504646 21.114646 41.504646 22.714646 
L 41.504646 45.399646 
Q 41.504646 46.999646 43.104646 46.999646 
z
" style="fill:#ffffff;opacity:0.8;stroke:#000000;stroke-linejoin:miter;"/>
    </g>
    <g id="line2d_19">
     <path d="M 44.704646 27.593396 
L 60.704646 27.593396 
" style="fill:none;stroke:#009afa;stroke-linecap:round;"/>
    </g>
    <g id="line2d_20"/>
    <g id="text_12">
     <!-- Urban CPI -->
     <g transform="translate(67.104646 30.393396)scale(0.08 -0.08)">
      <use xlink:href="#DejaVuSans-55"/>
      <use x="73.193359" xlink:href="#DejaVuSans-72"/>
      <use x="114.306641" xlink:href="#DejaVuSans-62"/>
      <use x="177.783203" xlink:href="#DejaVuSans-61"/>
      <use x="239.0625" xlink:href="#DejaVuSans-6e"/>
      <use x="302.441406" xlink:href="#DejaVuSans-20"/>
      <use x="334.228516" xlink:href="#DejaVuSans-43"/>
      <use x="404.052734" xlink:href="#DejaVuSans-50"/>
      <use x="464.355469" xlink:href="#DejaVuSans-49"/>
     </g>
    </g>
    <g id="line2d_21">
     <path d="M 44.704646 39.335896 
L 60.704646 39.335896 
" style="fill:none;stroke:#e36f47;stroke-linecap:round;"/>
    </g>
    <g id="line2d_22"/>
    <g id="text_13">
     <!-- Higher Education CPI -->
     <g transform="translate(67.104646 42.135896)scale(0.08 -0.08)">
      <use xlink:href="#DejaVuSans-48"/>
      <use x="75.195312" xlink:href="#DejaVuSans-69"/>
      <use x="102.978516" xlink:href="#DejaVuSans-67"/>
      <use x="166.455078" xlink:href="#DejaVuSans-68"/>
      <use x="229.833984" xlink:href="#DejaVuSans-65"/>
      <use x="291.357422" xlink:href="#DejaVuSans-72"/>
      <use x="332.470703" xlink:href="#DejaVuSans-20"/>
      <use x="364.257812" xlink:href="#DejaVuSans-45"/>
      <use x="427.441406" xlink:href="#DejaVuSans-64"/>
      <use x="490.917969" xlink:href="#DejaVuSans-75"/>
      <use x="554.296875" xlink:href="#DejaVuSans-63"/>
      <use x="609.277344" xlink:href="#DejaVuSans-61"/>
      <use x="670.556641" xlink:href="#DejaVuSans-74"/>
      <use x="709.765625" xlink:href="#DejaVuSans-69"/>
      <use x="737.548828" xlink:href="#DejaVuSans-6f"/>
      <use x="798.730469" xlink:href="#DejaVuSans-6e"/>
      <use x="862.109375" xlink:href="#DejaVuSans-20"/>
      <use x="893.896484" xlink:href="#DejaVuSans-43"/>
      <use x="963.720703" xlink:href="#DejaVuSans-50"/>
      <use x="1024.023438" xlink:href="#DejaVuSans-49"/>
     </g>
    </g>
   </g>
  </g>
 </g>
 <defs>
  <clipPath id="pec9e6c8f89">
   <rect height="241.570709" width="391.660709" x="37.504646" y="17.114646"/>
  </clipPath>
 </defs>
</svg>
